<svg xmlns="http://www.w3.org/2000/svg" viewBox="0 0 120 120"><circle cx="60" cy="60" r="54" fill="#f3f8fc"/><g fill="#0b4f8a"><rect x="54" y="3" width="12" height="22" rx="4"/><rect x="54" y="95" width="12" height="22" rx="4"/><rect x="3" y="54" width="22" height="12" rx="4"/><rect x="95" y="54" width="22" height="12" rx="4"/><rect x="17" y="17" width="12" height="22" rx="4" transform="rotate(-45 23 28)"/><rect x="91" y="81" width="12" height="22" rx="4" transform="rotate(-45 97 92)"/><rect x="17" y="81" width="12" height="22" rx="4" transform="rotate(45 23 92)"/><rect x="91" y="17" width="12" height="22" rx="4" transform="rotate(45 97 28)"/><circle cx="60" cy="60" r="39"/></g><circle cx="60" cy="60" r="27" fill="#fff"/><path d="M60 26c10 11 14 22 12 32l-12 9-12-9c-2-10 2-21 12-32z" fill="#ff8a1f"/><circle cx="60" cy="45" r="5.5" fill="#ffd34d"/><path d="M50 59l-10 8 11 2zm20 0l10 8-11 2z" fill="#31b67a"/><path d="M56 67h8l-4 14z" fill="#ffd34d"/></svg>
